# xmcd
#
# Track frame offsets: 
#        150
#        25047
#        46860
#        63746
#        88277
#        118980
#        150108
#        165901
#        187211
#        209260
#        230308
#        245705
#        261561
#        278441
#        301275
#        323008
#        345917
#
# Disc length: 4756 seconds
#
# Revision: 0
# Processed by: cddbd v1.5.2PL0 Copyright (c) Steve Scherf et al.
# Submitted via: ExactAudioCopy v0.95a5
#
DISCID=e6129211
DTITLE=SANTANA - Super Hits Of...CD-2
DYEAR=2005
DGENRE=Blues
TTITLE0=Aqua Marine\\
TTITLE1=Con Tu Amor
TTITLE2=Life Is a Lady
TTITLE3=The Facts Of Love
TTITLE4=Love Theme From 'Spartacus'
TTITLE5=Song For My Brother
TTITLE6=Sensitive Kind
TTITLE7=I Love You Much Too Much
TTITLE8=The Nile - Shango
TTITLE9=Night Hunting Time
TTITLE10=What Does It Take To Win Your Love
TTITLE11=Let Me Inside
TTITLE12=Written In Sand - Beyond Appearances
TTITLE13=Spirit - Beyond Appearances
TTITLE14=Two Points Of View - Beyond Appearances
TTITLE15=Luz Amor Y Vida
TTITLE16=Morning In Marin
EXTD=
EXTT0=
EXTT1=
EXTT2=
EXTT3=
EXTT4=
EXTT5=
EXTT6=
EXTT7=
EXTT8=
EXTT9=
EXTT10=
EXTT11=
EXTT12=
EXTT13=
EXTT14=
EXTT15=
EXTT16=
PLAYORDER=
